<svg width="165" height="32" viewBox="0 0 165 32" fill="none" xmlns="http://www.w3.org/2000/svg">
<path fill-rule="evenodd" clip-rule="evenodd" d="M40.9948 0.0304139C40.9416 0.052328 40.9277 2.47061 40.9277 11.8698V23.6818H43.1549H45.3818L45.3998 18.3509C45.4198 12.369 45.395 12.7457 45.8259 11.8727C46.1826 11.1502 46.677 10.7097 47.5609 10.3268C47.8307 10.2101 50.2373 10.1518 50.712 10.2504C51.8696 10.4908 52.625 11.4934 52.7945 13.0145C52.8306 13.3397 52.8516 15.3786 52.8516 18.6039V23.6818H55.0829H57.3143L57.2943 17.7331C57.2727 11.2894 57.2772 11.389 56.9721 10.3078C56.3014 7.93205 54.643 6.55565 52.0279 6.20373C50.9628 6.06065 49.5367 6.13284 48.8232 6.36583C47.3924 6.83344 46.4913 7.49119 45.7327 8.62202L45.4127 9.09929L45.3856 4.5605L45.3589 0.022035L43.2103 0.0126894C42.0289 0.00721087 41.0318 0.0152675 40.9948 0.0304139ZM148.148 0.0307362C148.095 0.052328 148.081 2.47061 148.081 11.8698V23.6818H150.31H152.539V20.0283V16.3748L153.569 16.3893L154.599 16.4038L154.952 16.8949C155.146 17.165 155.511 17.6793 155.762 18.0377C156.013 18.3963 156.448 19.0148 156.728 19.4124C157.009 19.8098 157.481 20.4785 157.776 20.8984C158.071 21.318 158.519 21.9529 158.772 22.309C159.024 22.6651 159.345 23.1198 159.486 23.3193L159.742 23.6818H162.371C163.817 23.6818 165 23.6721 165 23.6602C165 23.6486 164.634 23.1108 164.187 22.4653C163.158 20.9816 162.987 20.7347 162.037 19.358C161.609 18.7376 161.15 18.0728 161.016 17.881C160.614 17.3026 159.31 15.4147 158.975 14.9268C158.593 14.3693 158.592 14.4312 158.995 13.923C159.671 13.0696 160.037 12.6026 162.53 9.42156C163.386 8.32843 164.207 7.28494 164.355 7.10253C164.503 6.91981 164.624 6.74482 164.624 6.71291C164.624 6.67263 163.885 6.65523 162.181 6.65523H159.737L159.606 6.80315C159.534 6.88436 158.669 7.97878 157.685 9.23497C156.701 10.4912 155.655 11.8266 155.359 12.2024L154.823 12.8859H153.681H152.539V6.47315C152.539 0.674945 152.531 0.057162 152.454 0.0278359C152.353 -0.0111583 148.245 -0.00825796 148.148 0.0307362ZM102.306 4.30559L102.293 6.62848L100.762 6.65523L99.2311 6.6823L99.2169 8.52083L99.2027 10.3597L100.748 10.3739L102.293 10.3884L102.319 15.437L102.346 20.4859L102.469 20.9065C102.868 22.2787 103.735 23.1365 105.127 23.5358C105.493 23.6409 105.677 23.6483 108.322 23.6676L111.129 23.6879L111.115 21.7647L111.101 19.8414L109.382 19.8133C106.547 19.7673 106.777 20.2352 106.777 14.5076V10.3626L108.886 10.3487L110.994 10.3345L111.008 8.53887C111.019 7.13798 111.007 6.73354 110.954 6.70002C110.917 6.6765 109.962 6.65652 108.832 6.6562L106.777 6.65523V4.3188V1.98238H104.549H102.321L102.306 4.30559ZM68.777 6.15282C64.7435 6.41772 62.0294 8.2585 60.7642 11.5872C59.972 13.6716 59.9527 16.629 60.7181 18.6867C60.7674 18.8195 60.8222 18.9767 60.8396 19.0357C61.1931 20.2313 62.5469 21.8855 63.9159 22.7949C67.1289 24.9293 72.6161 24.6522 75.4015 22.2152C76.5755 21.1881 77.5564 19.3087 77.5584 18.0824C77.5587 18.0602 76.5842 18.0422 75.3931 18.0422H73.2278L73.1053 18.3892C72.5849 19.8636 71.4299 20.5127 69.3264 20.5127C67.6465 20.5127 66.8534 20.2577 66.0451 19.4585C65.3307 18.7515 64.6143 17.2504 64.6143 16.4605C64.6143 16.386 65.2965 16.3761 71.2072 16.3638L77.8004 16.3503L77.7911 15.1334C77.7595 11.0142 76.1952 8.2295 73.181 6.92658C73.0335 6.86277 72.8643 6.78929 72.8053 6.76351C72.5939 6.67102 71.8917 6.47637 71.3361 6.35649C70.7492 6.22952 69.3287 6.1164 68.777 6.15282ZM133.928 6.20341C130.75 6.69422 128.29 8.89111 127.425 12.0119C127.358 12.2549 127.29 12.4737 127.275 12.4982C127.199 12.622 127.025 13.9768 126.995 14.6851C126.846 18.1485 128.068 21.035 130.431 22.8056C132.203 24.134 134.69 24.5668 137.043 23.9574C138.05 23.697 139.023 23.0843 140.013 22.0895C140.376 21.7244 140.684 21.426 140.698 21.426C140.711 21.426 140.723 21.9335 140.723 22.5539V23.6818H142.871H145.02L145.006 15.1821L144.993 6.6823H142.871H140.75L140.735 7.63556C140.727 8.15989 140.705 8.58882 140.687 8.58882C140.669 8.58882 140.47 8.41383 140.245 8.19953C138.552 6.58659 136.219 5.84957 133.928 6.20341ZM79.1443 6.70711C79.1101 6.76222 79.1884 7.01423 79.5455 7.99811C79.6689 8.33778 79.8014 8.71257 79.84 8.83052C79.8787 8.94879 80.0118 9.32327 80.1359 9.66326C80.2599 10.0029 80.3811 10.3413 80.405 10.4151C80.4288 10.4889 80.5619 10.8637 80.7001 11.2475C80.8387 11.6317 80.9718 12.0065 80.9963 12.0802C81.0211 12.154 81.1539 12.5285 81.2918 12.9127C81.4298 13.2968 81.6357 13.8769 81.7491 14.2017C81.8626 14.5266 82.0562 15.0706 82.1797 15.4102C82.3034 15.7499 82.4359 16.1247 82.4745 16.2426C82.5132 16.3609 82.646 16.7354 82.7701 17.0754C82.8938 17.415 83.0266 17.7895 83.0653 17.9078C83.1039 18.0261 83.237 18.4005 83.3608 18.7402C83.4845 19.0799 83.6176 19.4547 83.6563 19.5729C83.6946 19.6909 83.8271 20.0657 83.9499 20.4053C84.0727 20.745 84.2409 21.2165 84.3234 21.4527C84.4062 21.6889 84.5258 22.0273 84.5893 22.2045C84.6527 22.3818 84.7949 22.7808 84.9051 23.0908L85.1055 23.6547L86.1258 23.6686C87.3614 23.6854 87.2995 23.6686 87.1938 23.9615C87.148 24.0882 86.9821 24.5545 86.8248 24.9976C86.6679 25.4407 86.4374 26.0811 86.3131 26.4211C86.1887 26.7607 86.0552 27.1352 86.0166 27.2535C85.9782 27.3718 85.8458 27.7462 85.7227 28.0859C85.3888 29.0076 85.132 29.743 85.132 29.7755C85.132 29.8435 89.3243 29.8058 89.344 29.7375C89.3633 29.6705 89.4529 29.4185 89.9588 28.0053C90.1068 27.5919 90.3398 26.9393 90.4764 26.5551C90.6134 26.1713 90.7948 25.6637 90.8799 25.4272C91.1541 24.6673 91.7419 23.0241 91.9082 22.5539C92.1009 22.0083 92.2817 21.5023 92.4606 21.0096C92.5328 20.8101 92.7036 20.3328 92.8399 19.9487C92.9762 19.5649 93.1448 19.0934 93.2144 18.9013C93.2837 18.7093 93.4174 18.3348 93.5109 18.0689C93.6046 17.803 93.7745 17.3316 93.8882 17.0215C94.002 16.7115 94.1792 16.2159 94.282 15.9204C94.3848 15.6252 94.5695 15.1054 94.6929 14.7657C94.816 14.426 94.9417 14.0754 94.972 13.9868C95.0684 13.7061 95.7152 11.9069 95.8518 11.5395C95.924 11.3455 96.0049 11.116 96.031 11.0293C96.0574 10.9427 96.1799 10.5936 96.3036 10.254C96.6291 9.35936 97.0039 8.31458 97.0551 8.15924C97.0793 8.08544 97.1982 7.74997 97.3194 7.41384C97.4402 7.0774 97.5392 6.76931 97.5392 6.72903C97.5392 6.64782 93.5444 6.61656 93.4251 6.69648C93.3926 6.71807 93.2682 7.00167 93.148 7.32683C92.7332 8.45057 92.4964 9.10219 92.2492 9.79732C91.9949 10.5131 91.9134 10.7396 91.5231 11.8115C91.0745 13.0448 90.8857 13.5665 90.7162 14.0406C90.5031 14.6374 90.1938 15.4947 89.9169 16.2562C89.8016 16.5736 89.6295 17.0512 89.5347 17.3171C89.4397 17.5829 89.266 18.0663 89.1487 18.3912C89.0314 18.716 88.8967 19.0908 88.849 19.2236C88.7429 19.521 88.711 19.5442 88.4081 19.5442C88.0639 19.5442 88.0481 19.5249 87.7903 18.7879C87.6624 18.4221 87.4213 17.736 87.2544 17.2632C86.9631 16.4376 86.7745 15.8997 86.3172 14.591C86.2009 14.2588 85.9943 13.6726 85.8577 13.2887C85.7211 12.9046 85.5606 12.4454 85.5013 12.2681C85.4416 12.0909 85.3727 11.8975 85.3485 11.8386C85.3243 11.7793 85.2676 11.6223 85.2231 11.4892C85.1784 11.3564 85.0639 11.03 84.9692 10.7641C84.8745 10.4982 84.741 10.1238 84.6724 9.9317C84.6041 9.73963 84.3756 9.08705 84.1652 8.48151C83.9544 7.87597 83.7211 7.21726 83.6466 7.01778L83.5113 6.65523H81.3437C80.0124 6.65523 79.1639 6.67521 79.1443 6.70711ZM114.469 6.71904C114.419 6.76963 114.404 8.68905 114.404 15.233V23.6818H116.659H118.912L118.929 18.3776C118.948 12.5034 118.93 12.8053 119.301 12.0651C119.846 10.9755 120.243 10.8447 123.001 10.8447C124.848 10.8447 125.085 10.8353 125.114 10.7599C125.195 10.5492 125.149 6.77769 125.065 6.70776C124.925 6.59207 122.22 6.6736 121.736 6.80831C120.436 7.17053 119.469 7.96363 118.959 9.08576C118.774 9.49375 118.757 9.4135 118.742 8.01165L118.728 6.6823L116.631 6.66812C115.045 6.65749 114.519 6.67005 114.469 6.71904ZM70.9764 10.0107C72.1482 10.4493 73.0679 11.6001 73.3038 12.9233C73.3441 13.1495 73.339 13.2082 73.2764 13.232C73.0921 13.3029 64.7754 13.2633 64.7754 13.1917C64.7754 13.0522 65.0129 12.4206 65.2137 12.0264C65.8021 10.8705 66.7741 10.0864 67.8369 9.91076C68.2807 9.8376 70.7212 9.91527 70.9764 10.0107ZM137.644 10.0406C139.069 10.2282 140.206 11.4331 140.504 13.0702C140.58 13.4911 140.58 16.9513 140.504 17.3741C140.243 18.8201 139.306 19.8991 137.984 20.278C137.598 20.3886 135.502 20.4434 134.877 20.3593C132.217 20.0012 130.662 16.26 131.782 12.9127C132.268 11.4605 133.413 10.3017 134.594 10.0661C135.031 9.97908 137.048 9.96232 137.644 10.0406Z" fill="#1155D4"/>
<path fill-rule="evenodd" clip-rule="evenodd" d="M0.0772106 17.6283C0.144292 17.6954 0.181279 17.6958 5.89943 17.695C11.231 17.6942 11.6588 17.6983 11.7163 17.7503C11.7762 17.8047 11.7784 18.0163 11.7784 23.8643C11.7784 30.6487 11.7574 30.115 12.0191 29.9713C12.0994 29.9272 12.1878 29.8731 12.2155 29.8511C12.2433 29.8291 12.3719 29.7535 12.5013 29.6831C12.6308 29.6128 12.8804 29.4702 13.0561 29.3664C13.5209 29.0917 13.5452 29.0776 13.9136 28.8726C14.0985 28.7696 14.333 28.634 14.4348 28.5712C14.5365 28.5084 14.6823 28.4276 14.7589 28.3917C14.8355 28.3557 14.909 28.3086 14.9223 28.2871C14.9356 28.2656 15.0092 28.2185 15.0857 28.1825C15.1623 28.1466 15.3082 28.0648 15.4099 28.0005C15.5116 27.9364 15.6516 27.8589 15.7209 27.8282C15.7903 27.7976 15.847 27.7589 15.847 27.7421C15.847 27.7254 15.9189 27.6805 16.0067 27.6424C16.0946 27.6042 16.1967 27.5464 16.2337 27.5141C16.3051 27.4515 16.4089 27.3926 16.654 27.2754C16.7372 27.2357 16.8356 27.1772 16.8726 27.1455C16.9346 27.0925 17.5359 26.7441 17.73 26.6487C17.7762 26.626 17.9124 26.5477 18.0326 26.4748C18.261 26.3364 18.8154 26.0176 19.075 25.8755C19.1582 25.8301 19.249 25.7747 19.2767 25.7525C19.3045 25.7303 19.3801 25.6857 19.4449 25.6535C19.5096 25.6212 19.6458 25.5428 19.7475 25.4792C19.8492 25.4155 19.9929 25.3325 20.0669 25.2945C20.1409 25.2565 20.2846 25.1732 20.3863 25.1093C20.4881 25.0454 20.6241 24.9684 20.6887 24.9382C20.7533 24.9081 20.849 24.8472 20.9014 24.8031C20.9539 24.7589 21.0162 24.7229 21.0401 24.7229C21.0639 24.7229 21.1249 24.6903 21.1756 24.6503C21.2711 24.5753 21.4432 24.4757 21.6879 24.3542C21.7657 24.3155 21.838 24.2699 21.8485 24.253C21.8653 24.2259 22.2356 24.0108 22.6416 23.7924C22.7162 23.7522 22.7954 23.7045 22.8175 23.6864C22.8397 23.6682 22.9259 23.6162 23.0091 23.5708C23.0923 23.5255 23.3268 23.393 23.5303 23.2766C23.7337 23.1602 23.9455 23.0404 24.001 23.0104C24.1747 22.9169 24.7702 22.565 24.8623 22.5016C24.9107 22.4683 25.0014 22.4171 25.0641 22.3876C25.1267 22.3583 25.2611 22.2818 25.3628 22.2177C25.4645 22.1536 25.6115 22.0702 25.6892 22.0325C25.7671 21.9946 25.8394 21.9498 25.8499 21.9329C25.8603 21.916 26.0119 21.8248 26.1866 21.7303C26.3614 21.6358 26.513 21.5446 26.5234 21.5277C26.5339 21.5107 26.6062 21.4654 26.684 21.4269C26.7618 21.3885 26.9012 21.313 26.9936 21.2591C27.0861 21.2052 27.2298 21.1221 27.3131 21.0743C27.3963 21.0266 27.5476 20.9375 27.6493 20.8763C27.887 20.7334 28.4582 20.4021 28.6749 20.2815C29.0223 20.0882 29.3622 19.893 29.6836 19.7025C29.7946 19.6367 30.0215 19.5051 30.188 19.4101C30.3544 19.3149 30.5738 19.1855 30.6755 19.1225C30.7773 19.0594 30.9136 18.9811 30.9786 18.9484C31.0436 18.9157 31.1443 18.8549 31.2024 18.8133C31.2604 18.7717 31.3234 18.7377 31.3422 18.7377C31.3611 18.7377 31.4194 18.7016 31.4719 18.6575C31.5242 18.6133 31.62 18.5525 31.6845 18.5223C31.7492 18.4921 31.8852 18.415 31.9869 18.351C32.0886 18.2869 32.2239 18.2102 32.2874 18.1804C32.351 18.1507 32.4508 18.0898 32.5091 18.0452C32.5675 18.0008 32.6267 17.9643 32.6406 17.9643C32.6544 17.9643 32.8017 17.8811 32.9679 17.7794C33.1341 17.6776 33.2768 17.5944 33.2852 17.5944C33.3338 17.5944 33.7792 17.302 33.8056 17.2527C33.8396 17.1892 33.8516 3.96115 33.8178 3.90634C33.782 3.84842 33.6764 3.8754 33.4788 3.99309C33.3703 4.05773 33.2238 4.14474 33.1533 4.18643C33.0827 4.22804 32.9724 4.29622 32.908 4.33783C32.8436 4.37944 32.7785 4.41348 32.7633 4.41348C32.7482 4.41348 32.6982 4.44299 32.6523 4.47905C32.6064 4.51511 32.4872 4.58842 32.3872 4.64188C32.2873 4.69534 32.0542 4.82698 31.8692 4.9345C31.6843 5.04202 31.4693 5.16475 31.3914 5.2072C31.3137 5.24965 31.2101 5.31043 31.1614 5.34237C31.0162 5.43753 30.869 5.52066 30.719 5.59212C30.6412 5.62919 30.5682 5.6745 30.5568 5.69282C30.5456 5.71115 30.4601 5.76747 30.367 5.81799C30.274 5.86843 30.1328 5.94762 30.0535 5.99385C29.9741 6.04008 29.8357 6.12028 29.7459 6.17198C29.6562 6.22376 29.4995 6.31791 29.3978 6.38129C29.2961 6.44459 29.1523 6.52773 29.0784 6.56606C28.8606 6.6787 28.6352 6.81446 28.5687 6.87289C28.5347 6.9029 28.4689 6.93846 28.4227 6.95207C28.3764 6.96561 28.3084 7.00268 28.2714 7.03454C28.192 7.10271 27.9166 7.26478 27.7502 7.34137C27.6855 7.37112 27.6117 7.42055 27.5863 7.45123C27.561 7.48183 27.5216 7.50697 27.4989 7.50697C27.4762 7.50697 27.3186 7.59077 27.1487 7.69325C26.9787 7.79564 26.7987 7.895 26.7486 7.91399C26.6984 7.93299 26.6271 7.97578 26.5901 8.00899C26.5531 8.04219 26.3943 8.14062 26.2371 8.22771C26.0799 8.3148 25.8529 8.44527 25.7327 8.51773C25.6125 8.59019 25.4668 8.67081 25.409 8.69687C25.3511 8.72293 25.2937 8.7605 25.2815 8.78034C25.2692 8.80018 25.1955 8.84751 25.1176 8.8855C25.0399 8.9235 24.8778 9.01403 24.7576 9.08675C24.6374 9.15946 24.5012 9.23789 24.455 9.26109C24.4087 9.28429 24.3281 9.33792 24.2758 9.38021C24.2235 9.42257 24.1604 9.45721 24.1355 9.45721C24.1106 9.45721 24.0473 9.49327 23.9949 9.5374C23.9425 9.58154 23.8468 9.64198 23.7822 9.67165C23.6654 9.72536 23.4645 9.84272 23.2429 9.98672C23.1791 10.0282 23.1097 10.0623 23.0889 10.0624C23.068 10.0624 23.0308 10.0867 23.0061 10.1164C22.9815 10.1461 22.8851 10.2066 22.7919 10.2508C22.6986 10.2951 22.5392 10.3843 22.4375 10.4492C22.3357 10.5141 22.2002 10.5904 22.1361 10.6188C22.072 10.6471 21.9955 10.6921 21.966 10.7188C21.9365 10.7455 21.8508 10.8017 21.7756 10.8436C21.4253 11.0389 20.9887 11.2893 20.7898 11.4088C20.6696 11.481 20.5108 11.5704 20.4368 11.6074C20.3628 11.6444 20.1964 11.7425 20.0669 11.8255C19.9375 11.9084 19.8191 11.9769 19.804 11.9776C19.7888 11.9784 19.7104 12.0245 19.6298 12.0799C19.5492 12.1354 19.4731 12.1808 19.4608 12.1808C19.4485 12.1808 19.3909 12.2149 19.3328 12.2565C19.2747 12.2981 19.174 12.3589 19.109 12.3916C19.044 12.4243 18.9077 12.5034 18.806 12.5675C18.7043 12.6315 18.5729 12.7066 18.514 12.7345C18.4552 12.7623 18.3965 12.8021 18.3837 12.823C18.3707 12.8439 18.2903 12.8913 18.2048 12.9286C18.1194 12.9657 18.0247 13.0177 17.9946 13.044C17.9387 13.0927 17.8056 13.1677 17.5198 13.3112C17.432 13.3553 17.3601 13.4045 17.3601 13.4206C17.3601 13.4365 17.2882 13.4815 17.2004 13.5205C17.1126 13.5596 16.9348 13.6593 16.8053 13.7422C16.6758 13.825 16.5537 13.8935 16.5339 13.8943C16.514 13.895 16.4384 13.9407 16.3657 13.9956C16.2931 14.0506 16.2209 14.096 16.2053 14.0965C16.1896 14.097 16.0409 14.1807 15.8747 14.2824C15.7085 14.3841 15.5622 14.4673 15.5495 14.4673C15.5367 14.4673 15.4661 14.5083 15.3925 14.5584C15.3188 14.6085 15.198 14.682 15.1241 14.7218C14.7943 14.899 14.7406 14.9307 14.6531 14.9995C14.602 15.0397 14.5416 15.0726 14.5188 15.0726C14.496 15.0726 14.4348 15.1066 14.3827 15.1482C14.2891 15.223 14.1249 15.3173 13.897 15.4271C13.8325 15.4583 13.7367 15.5198 13.6843 15.564C13.6319 15.6081 13.5695 15.6442 13.5457 15.6442C13.5219 15.6442 13.4459 15.6891 13.3767 15.7442C13.2428 15.8505 13.0385 15.909 12.9855 15.856C12.9656 15.8361 12.9538 13.4249 12.9542 9.43653C12.9546 3.7256 12.9491 3.04109 12.9026 2.97468L12.8506 2.90037H6.47047C1.553 2.90037 0.0811616 2.90961 0.0500587 2.94072C-0.0324903 3.02327 -0.00559056 17.5455 0.0772106 17.6283Z" fill="#1155D4"/>
</svg>
